<svg width="58" height="68" viewBox="0 0 58 68" fill="none" xmlns="http://www.w3.org/2000/svg">
    <path d="M28.9999 68C28.7828 68 28.5637 67.9649 28.3546 67.8969C12.883 62.8601 0 48.771 0 32.8396V9.9617C0 8.86057 0.912205 7.96954 2.03951 7.96954C9.64185 7.96954 19.4875 5.79251 25.8133 1.67405L27.8687 0.33558C28.5538 -0.11186 29.4462 -0.11186 30.1313 0.33558L32.1867 1.67405C38.5123 5.79264 48.358 7.96954 55.9605 7.96954C57.0878 7.96954 58 8.86057 58 9.9617V32.8396C58 48.771 45.117 62.8601 29.6454 67.8969C29.4361 67.9651 29.2169 68 28.9999 68Z" fill="white"/>
    <path d="M29.0002 62C28.8255 62 28.6493 61.9711 28.4811 61.9151C16.0356 57.7671 5.67236 46.1644 5.67236 33.0443V14.2038C5.67236 13.2969 6.40615 12.5632 7.31297 12.5632C13.4284 12.5632 21.3483 10.7703 26.4368 7.37863L28.0902 6.27636C28.6413 5.90788 29.3592 5.90788 29.9103 6.27636L31.5637 7.37863C36.6521 10.7704 44.572 12.5632 50.6875 12.5632C51.5944 12.5632 52.3281 13.2969 52.3281 14.2038V33.0443C52.3281 46.1644 41.9649 57.7671 29.5194 61.9151C29.3511 61.9712 29.1748 62 29.0002 62Z" fill="url(#paint0_linear)"/>
    <path d="M28.7654 48.5308C20.6233 48.5308 14 41.9075 14 33.7654C14 25.6233 20.6233 19 28.7654 19C36.9075 19 43.5308 25.6233 43.5308 33.7654C43.5308 41.9075 36.9075 48.5308 28.7654 48.5308Z" fill="url(#paint1_linear)"/>
    <path d="M27 27C27 25.8954 27.8954 25 29 25C30.1046 25 31 25.8954 31 27V34C31 35.1046 30.1046 36 29 36C27.8954 36 27 35.1046 27 34V27Z" fill="url(#paint2_linear)"/>
    <path d="M27 40C27 38.8954 27.8954 38 29 38C30.1046 38 31 38.8954 31 40C31 41.1046 30.1046 42 29 42C27.8954 42 27 41.1046 27 40Z" fill="url(#paint3_linear)"/>
    <defs>
        <linearGradient id="paint0_linear" x1="28.9999" y1="62" x2="28.9999" y2="6.00001" gradientUnits="userSpaceOnUse">
            <stop stop-color="#60359E"/>
            <stop offset="1" stop-color="#D932C5"/>
        </linearGradient>
        <linearGradient id="paint1_linear" x1="28.7654" y1="48.5308" x2="28.7654" y2="19" gradientUnits="userSpaceOnUse">
            <stop stop-color="#D0B0DD"/>
            <stop offset="1" stop-color="#FFDFFF"/>
        </linearGradient>
        <linearGradient id="paint2_linear" x1="29" y1="42" x2="29" y2="25" gradientUnits="userSpaceOnUse">
            <stop stop-color="#9234AF"/>
            <stop offset="1" stop-color="#A634B5"/>
        </linearGradient>
        <linearGradient id="paint3_linear" x1="29" y1="42" x2="29" y2="25" gradientUnits="userSpaceOnUse">
            <stop stop-color="#9234AF"/>
            <stop offset="1" stop-color="#A634B5"/>
        </linearGradient>
    </defs>
</svg>
