<svg width="29" height="27" viewBox="0 0 29 27" fill="none" xmlns="http://www.w3.org/2000/svg">
<path d="M21.7702 7.7529L21.6707 7.81035L21.0962 6.81534C20.4298 5.66113 19.0226 5.19997 17.7964 5.69566L17.0956 4.48175C16.3717 3.22804 14.7395 2.79068 13.4858 3.51451L2.87899 9.63834C1.56558 10.3966 1.08001 12.0833 1.8299 13.4281L8.32139 24.6716C9.04522 25.9254 10.6775 26.3627 11.9312 25.6389L24.6673 18.2857C25.921 17.5619 26.3584 15.9296 25.6345 14.6759L25.0026 13.5814L25.1021 13.5239C25.8185 13.1103 26.0624 12.2 25.6488 11.4836L23.8105 8.2996C23.3969 7.5832 22.4866 7.33928 21.7702 7.7529ZM3.24589 12.6636C2.91269 12.0865 3.12604 11.3531 3.68325 11.0313L14.2701 4.91901C14.7676 4.63177 15.3954 4.79999 15.6827 5.29749L16.372 6.4915L4.88963 13.1209C4.33243 13.4426 3.57908 13.2407 3.24589 12.6636ZM24.1984 12.1884L20.9148 14.0841C20.0989 14.5552 19.0317 14.2692 18.5606 13.4533C18.0895 12.6374 18.3755 11.5702 19.1914 11.0991L22.4749 9.20336L24.1984 12.1884Z" fill="url(#paint0_linear)"/>
<defs>
<linearGradient id="paint0_linear" x1="5.04692" y1="19.0001" x2="23.7531" y2="8.2001" gradientUnits="userSpaceOnUse">
<stop stop-color="#60359E"/>
<stop offset="1" stop-color="#D932C5"/>
</linearGradient>
</defs>
</svg>
