<svg width="16" height="16" viewBox="0 0 16 16" fill="none" xmlns="http://www.w3.org/2000/svg">
<path d="M15.3752 3.82485C14.9585 3.40821 14.4559 3.19984 13.8669 3.19984H12.0002L11.5753 2.06657C11.4697 1.79439 11.2768 1.55963 10.996 1.36232C10.7155 1.16509 10.428 1.06641 10.1335 1.06641H5.86673C5.57228 1.06641 5.28474 1.16509 5.00416 1.36232C4.72357 1.55963 4.53058 1.79439 4.425 2.06657L4.00002 3.19984H2.13334C1.54435 3.19984 1.04167 3.40821 0.624951 3.82485C0.208317 4.24151 0 4.74425 0 5.33318V12.7999C0 13.3889 0.208317 13.8917 0.624951 14.3082C1.04167 14.725 1.54438 14.9333 2.13334 14.9333H13.8667C14.4556 14.9333 14.9583 14.725 15.375 14.3082C15.7916 13.8917 16 13.3889 16 12.7999V5.33318C16.0001 4.74425 15.7917 4.24151 15.3752 3.82485ZM10.6376 11.7042C9.907 12.4348 9.02791 12.8001 8.00004 12.8001C6.97218 12.8001 6.09314 12.4348 5.36253 11.7042C4.63192 10.9737 4.26669 10.0944 4.26669 9.06677C4.26669 8.03882 4.63204 7.15981 5.36253 6.4292C6.09306 5.69859 6.97221 5.33336 8.00004 5.33336C9.02788 5.33336 9.907 5.69868 10.6376 6.4292C11.3681 7.15972 11.7334 8.03882 11.7334 9.06677C11.7334 10.0944 11.3682 10.9736 10.6376 11.7042Z" fill="white"/>
<path d="M8.00008 6.66699C7.33893 6.66699 6.77364 6.90172 6.30417 7.37125C5.83471 7.84071 5.59998 8.40591 5.59998 9.0672C5.59998 9.72822 5.83471 10.2935 6.30417 10.763C6.77364 11.2324 7.3389 11.4671 8.00008 11.4671C8.66114 11.4671 9.22648 11.2324 9.69595 10.763C10.1654 10.2935 10.4002 9.72825 10.4002 9.0672C10.4002 8.40594 10.1654 7.84074 9.69595 7.37125C9.22651 6.90175 8.66114 6.66699 8.00008 6.66699Z" fill="white"/>
</svg>
