<svg width="21" height="21" viewBox="0 0 21 21" fill="none" xmlns="http://www.w3.org/2000/svg">
    <path d="M16.9131 6.04403L16.7924 5.92342C16.5244 5.65539 16.0956 5.65539 15.8275 5.92342L9.19384 12.5437L6.00431 9.36758C5.73628 9.09956 5.30743 9.09956 5.03941 9.36758L4.91879 9.4882C4.65077 9.75622 4.65077 10.1851 4.91879 10.4531L9.19384 14.7281L10.2928 13.6292L16.9265 6.99553C17.1811 6.74091 17.1811 6.31206 16.9131 6.04403Z" fill="#E385B8"/>
    <path d="M10.4933 21C4.70389 21 0 16.2827 0 10.4933C0 4.70389 4.70389 0 10.4933 0C12.0077 0 13.4684 0.308232 14.8354 0.938098C15.1436 1.07211 15.2776 1.43395 15.1302 1.74218C14.9962 2.05041 14.6343 2.18443 14.3261 2.03701C13.1334 1.48756 11.8334 1.20613 10.4933 1.20613C5.37396 1.20613 1.20613 5.37396 1.20613 10.4933C1.20613 15.6126 5.37396 19.7805 10.4933 19.7805C15.6126 19.7805 19.7805 15.6126 19.7805 10.4933C19.7805 9.90364 19.7269 9.32738 19.6197 8.75112C19.5526 8.42948 19.7671 8.10785 20.1021 8.04084C20.4237 7.97384 20.7454 8.18826 20.8124 8.52329C20.933 9.16656 21 9.82323 21 10.4799C21 16.2827 16.2827 21 10.4933 21Z" fill="#E385B8"/>
    <path d="M18.7757 4.85131C18.7757 5.28015 18.4273 5.64199 17.985 5.64199C17.5562 5.64199 17.1943 5.29356 17.1943 4.85131C17.1943 4.42247 17.5428 4.06063 17.985 4.06063C18.4273 4.07403 18.7757 4.42247 18.7757 4.85131Z" fill="#E385B8"/>
</svg>
