<svg width="12" height="12" viewBox="0 0 12 12" fill="none" xmlns="http://www.w3.org/2000/svg">
<path d="M0.545455 9.81818H1.09091V8.72727V7.63636V1.09091H6.1172V1.09087H9.81818V0.545455C9.81818 0.244218 9.57396 0 9.27273 0H0.545455C0.244218 0 0 0.244218 0 0.545455V9.27273C0 9.57396 0.244218 9.81818 0.545455 9.81818Z" fill="#6237A0"/>
<path d="M11.4546 2.18168H9.81825V2.18164H8.72734V2.18168H2.72734C2.4261 2.18168 2.18188 2.4259 2.18188 2.72713V7.63622V8.72713V9.81804V10.2463V11.4544C2.18188 11.7556 2.4261 11.9999 2.72734 11.9999H11.4546C11.7558 11.9999 12.0001 11.7556 12.0001 11.4544V2.72713C12.0001 2.4259 11.7558 2.18168 11.4546 2.18168Z" fill="#6237A0"/>
</svg>
