<svg width="100" height="100" viewBox="0 0 100 100" fill="none" xmlns="http://www.w3.org/2000/svg">
<path d="M50 100C22.4285 100 0 77.5715 0 50C0 22.4285 22.4285 0 50 0C77.5715 0 100 22.4285 100 50C100 77.5715 77.5715 100 50 100Z" fill="#DC6A7F"/>
<path d="M50 100C22.4285 100 0 77.5715 0 50C0 22.4285 22.4285 0 50 0C77.5715 0 100 22.4285 100 50C100 77.5715 77.5715 100 50 100Z" fill="url(#paint0_linear)"/>
<path d="M64.6564 39.9962C64.6564 38.5569 64.1138 37.1177 63.0287 36.0193L63.7027 36.5545C61.5327 34.3573 58.0168 34.3573 55.8468 36.5545C53.6768 38.7516 53.6768 42.3114 55.8468 44.5086L51.245 39.9965L32.9506 58.5196C30.7806 60.7167 30.7806 64.2766 32.9506 66.4737C35.1206 68.6708 38.6365 68.6708 40.8065 66.4737L63.0287 43.9738C64.1138 42.8743 64.6564 41.4354 64.6564 39.9962Z" fill="white"/>
<path d="M40.7348 63.9183C39.2955 63.9183 37.8563 63.3757 36.7579 62.2905L37.2931 62.9645C35.0959 60.7945 35.0959 57.2786 37.2931 55.1086C39.4902 52.9386 43.05 52.9386 45.2471 55.1086L40.7351 50.5068L59.2582 32.2124C61.4553 30.0424 65.0151 30.0424 67.2123 32.2124C69.4094 34.3824 69.4094 37.8983 67.2123 40.0683L44.7124 62.2905C43.6129 63.3757 42.174 63.9183 40.7348 63.9183Z" fill="white"/>
<path d="M59.2653 63.9182C60.7045 63.9182 62.1438 63.3756 63.2422 62.2904L62.707 62.9645C64.9041 60.7945 64.9041 57.2786 62.707 55.1086C60.5099 52.9386 56.95 52.9386 54.7529 55.1086L59.2649 50.5068L40.7419 32.2124C38.5448 30.0424 34.9849 30.0424 32.7878 32.2124C30.5907 34.3824 30.5907 37.8983 32.7878 40.0683L55.2877 62.2904C56.3872 63.3756 57.8261 63.9182 59.2653 63.9182Z" fill="white"/>
<path d="M35.3432 39.9965C35.3432 38.5573 35.8858 37.118 36.971 36.0197L36.2969 36.5548C38.4669 34.3577 41.9828 34.3577 44.1528 36.5548C46.3228 38.752 46.3228 42.3118 44.1528 44.5089L48.7546 39.9969L67.049 58.52C69.219 60.7171 69.219 64.2769 67.049 66.474C64.879 68.6712 61.3631 68.6712 59.1931 66.474L36.971 43.9741C35.8858 42.8746 35.3432 41.4358 35.3432 39.9965Z" fill="white"/>
<defs>
<linearGradient id="paint0_linear" x1="50" y1="0" x2="50" y2="100" gradientUnits="userSpaceOnUse">
<stop stop-color="#EC93A4"/>
<stop offset="1" stop-color="#CB4860"/>
</linearGradient>
</defs>
</svg>
