<svg width="339" height="175" viewBox="0 0 339 175" fill="none" xmlns="http://www.w3.org/2000/svg">
    <path d="M53.5216 122.985H0.384526V102.17L55.5523 27.5416H83.9823V97.9397H96.8435V122.985H83.9823V146H53.5216V122.985ZM53.5216 97.9397V61.2176L27.63 97.9397H53.5216ZM294.839 122.985H241.702V102.17L296.87 27.5416H325.3V97.9397H338.161V122.985H325.3V146H294.839V122.985ZM294.839 97.9397V61.2176L268.948 97.9397H294.839Z" fill="#C6C6D7"/>
    <g opacity="0.2">
        <path d="M187.746 145.312C187.746 146.96 189.072 148.296 190.707 148.296H222.3C223.935 148.296 225.261 146.96 225.261 145.312V113.464C225.261 111.816 223.935 110.479 222.3 110.479H190.707C189.072 110.479 187.746 111.816 187.746 113.464V145.312Z" fill="url(#paint0_linear)"/>
        <path d="M186.407 62.2131C186.407 62.7626 186.849 63.208 187.394 63.208H196.138C196.683 63.208 197.125 62.7626 197.125 62.2131V53.398C197.125 52.8486 196.683 52.4031 196.138 52.4031H187.394C186.849 52.4031 186.407 52.8486 186.407 53.3981V62.2131Z" fill="url(#paint1_linear)"/>
        <path d="M135.495 56.8107C135.495 57.3601 135.937 57.8056 136.482 57.8056H145.226C145.771 57.8056 146.213 57.3601 146.213 56.8107V47.9956C146.213 47.4461 145.771 47.0007 145.226 47.0007H136.482C135.937 47.0007 135.495 47.4462 135.495 47.9956V56.8107Z" fill="url(#paint2_linear)"/>
        <path d="M102 102.731C102 103.281 102.442 103.726 102.987 103.726H111.731C112.276 103.726 112.718 103.281 112.718 102.731V93.9164C112.718 93.3669 112.276 92.9214 111.731 92.9214H102.987C102.442 92.9214 102 93.3669 102 93.9164V102.731Z" fill="url(#paint3_linear)"/>
        <path d="M191.766 170.262C191.766 170.811 192.208 171.257 192.753 171.257H201.497C202.042 171.257 202.484 170.811 202.484 170.262V161.447C202.484 160.897 202.042 160.452 201.497 160.452H192.753C192.208 160.452 191.766 160.897 191.766 161.447V170.262Z" fill="url(#paint4_linear)"/>
        <path d="M160.951 39.2527C160.951 39.8022 161.393 40.2477 161.938 40.2477H170.682C171.227 40.2477 171.669 39.8022 171.669 39.2527V30.4377C171.669 29.8882 171.227 29.4428 170.682 29.4428H161.938C161.393 29.4428 160.951 29.8882 160.951 30.4377V39.2527Z" fill="url(#paint5_linear)"/>
        <path d="M122.097 31.8605C122.097 33.5089 123.422 34.8452 125.058 34.8452H152.184C153.819 34.8452 155.145 33.5089 155.145 31.8605V4.51491C155.145 2.86647 153.819 1.53015 152.184 1.53015H125.058C123.422 1.53015 122.097 2.86647 122.097 4.51491V31.8605Z" fill="url(#paint6_linear)"/>
        <path d="M114.058 155.761C114.058 156.86 114.942 157.751 116.032 157.751H136.201C137.291 157.751 138.175 156.86 138.175 155.761V135.43C138.175 134.331 137.291 133.44 136.201 133.44H116.032C114.942 133.44 114.058 134.331 114.058 135.43V155.761Z" fill="url(#paint7_linear)"/>
        <path d="M122.097 117.944C122.097 119.043 122.981 119.934 124.071 119.934H144.239C145.329 119.934 146.213 119.043 146.213 117.944V97.6125C146.213 96.5135 145.329 95.6227 144.239 95.6227H124.071C122.981 95.6227 122.097 96.5135 122.097 97.6125V117.944Z" fill="url(#paint8_linear)"/>
        <path d="M197.125 90.9316C197.125 92.0306 198.009 92.9214 199.099 92.9214H219.267C220.357 92.9214 221.241 92.0306 221.241 90.9316V70.6003C221.241 69.5013 220.357 68.6105 219.267 68.6105H199.099C198.009 68.6105 197.125 69.5013 197.125 70.6003V90.9316Z" fill="url(#paint9_linear)"/>
        <path d="M182.387 36.9072C182.387 38.0061 183.271 38.897 184.361 38.897H200.064C201.154 38.897 202.038 38.0061 202.038 36.9072V21.0779C202.038 19.979 201.154 19.0881 200.064 19.0881H184.361C183.271 19.0881 182.387 19.979 182.387 21.0779V36.9072Z" fill="url(#paint10_linear)"/>
        <path d="M102 70.6725C102 71.7714 102.884 72.6623 103.974 72.6623H119.676C120.767 72.6623 121.65 71.7714 121.65 70.6725V54.8432C121.65 53.7442 120.767 52.8533 119.676 52.8533H103.974C102.884 52.8533 102 53.7442 102 54.8432V70.6725Z" fill="url(#paint11_linear)"/>
        <path d="M154.252 147.302C154.252 147.851 154.694 148.296 155.239 148.296H168.449C168.994 148.296 169.436 147.851 169.436 147.302V133.984C169.436 133.435 168.994 132.99 168.449 132.99H155.239C154.694 132.99 154.252 133.435 154.252 133.984V147.302Z" fill="url(#paint12_linear)"/>
        <path d="M211.863 55.4601C211.863 56.0095 212.305 56.455 212.85 56.455H226.06C226.605 56.455 227.047 56.0095 227.047 55.4601V42.143C227.047 41.5935 226.605 41.1481 226.06 41.1481H212.85C212.305 41.1481 211.863 41.5935 211.863 42.143V55.4601Z" fill="url(#paint13_linear)"/>
    </g>
    <path d="M199.7 30.6078C199.7 28.9594 201.025 27.623 202.66 27.623H234.253C235.888 27.623 237.214 28.9594 237.214 30.6078V62.4554C237.214 64.1038 235.888 65.4401 234.253 65.4401H202.66C201.025 65.4401 199.7 64.1038 199.7 62.4554V30.6078Z" fill="url(#paint14_linear)"/>
    <path d="M198.36 113.706C198.36 113.157 198.802 112.711 199.347 112.711H208.091C208.636 112.711 209.078 113.157 209.078 113.706V122.521C209.078 123.071 208.636 123.516 208.091 123.516H199.347C198.802 123.516 198.36 123.071 198.36 122.521V113.706Z" fill="url(#paint15_linear)"/>
    <path d="M147.448 119.109C147.448 118.559 147.89 118.114 148.435 118.114H157.179C157.724 118.114 158.166 118.559 158.166 119.109V127.924C158.166 128.473 157.724 128.919 157.179 128.919H148.435C147.89 128.919 147.448 128.473 147.448 127.924V119.109Z" fill="url(#paint16_linear)"/>
    <path d="M113.953 73.1881C113.953 72.6386 114.395 72.1932 114.94 72.1932H123.684C124.229 72.1932 124.671 72.6386 124.671 73.1881V82.0032C124.671 82.5526 124.229 82.9981 123.684 82.9981H114.94C114.395 82.9981 113.953 82.5526 113.953 82.0031V73.1881Z" fill="url(#paint17_linear)"/>
    <path d="M203.719 5.65759C203.719 5.10811 204.161 4.66267 204.706 4.66267H213.45C213.995 4.66267 214.437 5.10811 214.437 5.65759V14.4726C214.437 15.0221 213.995 15.4676 213.45 15.4676H204.706C204.161 15.4676 203.719 15.0221 203.719 14.4726V5.65759Z" fill="url(#paint18_linear)"/>
    <path d="M172.904 136.667C172.904 136.117 173.346 135.672 173.891 135.672H182.635C183.18 135.672 183.622 136.117 183.622 136.667V145.482C183.622 146.031 183.18 146.477 182.635 146.477H173.891C173.346 146.477 172.904 146.031 172.904 145.482V136.667Z" fill="url(#paint19_linear)"/>
    <path d="M134.05 144.059C134.05 142.411 135.375 141.074 137.011 141.074H164.137C165.772 141.074 167.098 142.411 167.098 144.059V171.405C167.098 173.053 165.772 174.389 164.137 174.389H137.011C135.375 174.389 134.05 173.053 134.05 171.405V144.059Z" fill="url(#paint20_linear)"/>
    <path d="M126.011 20.1586C126.011 19.0596 126.895 18.1688 127.985 18.1688H148.154C149.244 18.1688 150.128 19.0597 150.128 20.1586V40.4899C150.128 41.5889 149.244 42.4798 148.154 42.4798H127.985C126.895 42.4798 126.011 41.5889 126.011 40.4899V20.1586Z" fill="url(#paint21_linear)"/>
    <path d="M134.05 57.9757C134.05 56.8767 134.934 55.9859 136.024 55.9859H156.192C157.282 55.9859 158.166 56.8767 158.166 57.9757V78.307C158.166 79.406 157.282 80.2968 156.192 80.2968H136.024C134.934 80.2968 134.05 79.406 134.05 78.307V57.9757Z" fill="url(#paint22_linear)"/>
    <path d="M209.078 84.9879C209.078 83.8889 209.962 82.9981 211.052 82.9981H231.22C232.31 82.9981 233.194 83.8889 233.194 84.9879V105.319C233.194 106.418 232.31 107.309 231.22 107.309H211.052C209.962 107.309 209.078 106.418 209.078 105.319V84.9879Z" fill="url(#paint23_linear)"/>
    <path d="M194.34 139.012C194.34 137.913 195.224 137.022 196.314 137.022H212.017C213.107 137.022 213.991 137.913 213.991 139.012V154.842C213.991 155.941 213.107 156.831 212.017 156.831H196.314C195.224 156.831 194.34 155.941 194.34 154.842V139.012Z" fill="url(#paint24_linear)"/>
    <path d="M113.953 105.247C113.953 104.148 114.837 103.257 115.927 103.257H131.629C132.72 103.257 133.603 104.148 133.603 105.247V121.076C133.603 122.175 132.72 123.066 131.629 123.066H115.927C114.837 123.066 113.953 122.175 113.953 121.076V105.247Z" fill="url(#paint25_linear)"/>
    <path d="M166.205 28.618C166.205 28.0685 166.647 27.623 167.192 27.623H180.402C180.947 27.623 181.389 28.0685 181.389 28.618V41.935C181.389 42.4845 180.947 42.93 180.402 42.93H167.192C166.647 42.93 166.205 42.4845 166.205 41.935V28.618Z" fill="url(#paint26_linear)"/>
    <path d="M172.904 1.60576C172.904 1.05628 173.346 0.61084 173.891 0.61084H187.101C187.646 0.61084 188.088 1.05628 188.088 1.60575V14.9228C188.088 15.4723 187.646 15.9178 187.101 15.9178H173.891C173.346 15.9178 172.904 15.4723 172.904 14.9228V1.60576Z" fill="url(#paint27_linear)"/>
    <path d="M223.816 120.459C223.816 119.91 224.258 119.465 224.803 119.465H238.013C238.558 119.465 239 119.91 239 120.459V133.777C239 134.326 238.558 134.771 238.013 134.771H224.803C224.258 134.771 223.816 134.326 223.816 133.777V120.459Z" fill="url(#paint28_linear)"/>
    <defs>
        <linearGradient id="paint0_linear" x1="116.986" y1="1.1986" x2="228.249" y2="164.529" gradientUnits="userSpaceOnUse">
            <stop stop-color="#5D2E98"/>
            <stop offset="0.479167" stop-color="#A490CD"/>
            <stop offset="1" stop-color="#DF33C8"/>
        </linearGradient>
        <linearGradient id="paint1_linear" x1="116.986" y1="1.1986" x2="228.249" y2="164.529" gradientUnits="userSpaceOnUse">
            <stop stop-color="#5D2E98"/>
            <stop offset="0.479167" stop-color="#A490CD"/>
            <stop offset="1" stop-color="#DF33C8"/>
        </linearGradient>
        <linearGradient id="paint2_linear" x1="116.986" y1="1.1986" x2="228.249" y2="164.529" gradientUnits="userSpaceOnUse">
            <stop stop-color="#5D2E98"/>
            <stop offset="0.479167" stop-color="#A490CD"/>
            <stop offset="1" stop-color="#DF33C8"/>
        </linearGradient>
        <linearGradient id="paint3_linear" x1="116.986" y1="1.1986" x2="228.249" y2="164.529" gradientUnits="userSpaceOnUse">
            <stop stop-color="#5D2E98"/>
            <stop offset="0.479167" stop-color="#A490CD"/>
            <stop offset="1" stop-color="#DF33C8"/>
        </linearGradient>
        <linearGradient id="paint4_linear" x1="116.986" y1="1.1986" x2="228.249" y2="164.529" gradientUnits="userSpaceOnUse">
            <stop stop-color="#5D2E98"/>
            <stop offset="0.479167" stop-color="#A490CD"/>
            <stop offset="1" stop-color="#DF33C8"/>
        </linearGradient>
        <linearGradient id="paint5_linear" x1="116.986" y1="1.1986" x2="228.249" y2="164.529" gradientUnits="userSpaceOnUse">
            <stop stop-color="#5D2E98"/>
            <stop offset="0.479167" stop-color="#A490CD"/>
            <stop offset="1" stop-color="#DF33C8"/>
        </linearGradient>
        <linearGradient id="paint6_linear" x1="116.986" y1="1.1986" x2="228.249" y2="164.529" gradientUnits="userSpaceOnUse">
            <stop stop-color="#5D2E98"/>
            <stop offset="0.479167" stop-color="#A490CD"/>
            <stop offset="1" stop-color="#DF33C8"/>
        </linearGradient>
        <linearGradient id="paint7_linear" x1="116.986" y1="1.1986" x2="228.249" y2="164.529" gradientUnits="userSpaceOnUse">
            <stop stop-color="#5D2E98"/>
            <stop offset="0.479167" stop-color="#A490CD"/>
            <stop offset="1" stop-color="#DF33C8"/>
        </linearGradient>
        <linearGradient id="paint8_linear" x1="116.986" y1="1.1986" x2="228.249" y2="164.529" gradientUnits="userSpaceOnUse">
            <stop stop-color="#5D2E98"/>
            <stop offset="0.479167" stop-color="#A490CD"/>
            <stop offset="1" stop-color="#DF33C8"/>
        </linearGradient>
        <linearGradient id="paint9_linear" x1="116.986" y1="1.1986" x2="228.249" y2="164.529" gradientUnits="userSpaceOnUse">
            <stop stop-color="#5D2E98"/>
            <stop offset="0.479167" stop-color="#A490CD"/>
            <stop offset="1" stop-color="#DF33C8"/>
        </linearGradient>
        <linearGradient id="paint10_linear" x1="116.986" y1="1.1986" x2="228.249" y2="164.529" gradientUnits="userSpaceOnUse">
            <stop stop-color="#5D2E98"/>
            <stop offset="0.479167" stop-color="#A490CD"/>
            <stop offset="1" stop-color="#DF33C8"/>
        </linearGradient>
        <linearGradient id="paint11_linear" x1="116.986" y1="1.1986" x2="228.249" y2="164.529" gradientUnits="userSpaceOnUse">
            <stop stop-color="#5D2E98"/>
            <stop offset="0.479167" stop-color="#A490CD"/>
            <stop offset="1" stop-color="#DF33C8"/>
        </linearGradient>
        <linearGradient id="paint12_linear" x1="116.986" y1="1.1986" x2="228.249" y2="164.529" gradientUnits="userSpaceOnUse">
            <stop stop-color="#5D2E98"/>
            <stop offset="0.479167" stop-color="#A490CD"/>
            <stop offset="1" stop-color="#DF33C8"/>
        </linearGradient>
        <linearGradient id="paint13_linear" x1="116.986" y1="1.1986" x2="228.249" y2="164.529" gradientUnits="userSpaceOnUse">
            <stop stop-color="#5D2E98"/>
            <stop offset="0.479167" stop-color="#A490CD"/>
            <stop offset="1" stop-color="#DF33C8"/>
        </linearGradient>
        <linearGradient id="paint14_linear" x1="128.939" y1="174.721" x2="240.202" y2="11.3904" gradientUnits="userSpaceOnUse">
            <stop stop-color="#5D2E98"/>
            <stop offset="0.479167" stop-color="#A490CD"/>
            <stop offset="1" stop-color="#DF33C8"/>
        </linearGradient>
        <linearGradient id="paint15_linear" x1="128.939" y1="174.721" x2="240.202" y2="11.3904" gradientUnits="userSpaceOnUse">
            <stop stop-color="#5D2E98"/>
            <stop offset="0.479167" stop-color="#A490CD"/>
            <stop offset="1" stop-color="#DF33C8"/>
        </linearGradient>
        <linearGradient id="paint16_linear" x1="128.939" y1="174.721" x2="240.202" y2="11.3904" gradientUnits="userSpaceOnUse">
            <stop stop-color="#5D2E98"/>
            <stop offset="0.479167" stop-color="#A490CD"/>
            <stop offset="1" stop-color="#DF33C8"/>
        </linearGradient>
        <linearGradient id="paint17_linear" x1="128.939" y1="174.721" x2="240.202" y2="11.3904" gradientUnits="userSpaceOnUse">
            <stop stop-color="#5D2E98"/>
            <stop offset="0.479167" stop-color="#A490CD"/>
            <stop offset="1" stop-color="#DF33C8"/>
        </linearGradient>
        <linearGradient id="paint18_linear" x1="128.939" y1="174.721" x2="240.202" y2="11.3904" gradientUnits="userSpaceOnUse">
            <stop stop-color="#5D2E98"/>
            <stop offset="0.479167" stop-color="#A490CD"/>
            <stop offset="1" stop-color="#DF33C8"/>
        </linearGradient>
        <linearGradient id="paint19_linear" x1="128.939" y1="174.721" x2="240.202" y2="11.3904" gradientUnits="userSpaceOnUse">
            <stop stop-color="#5D2E98"/>
            <stop offset="0.479167" stop-color="#A490CD"/>
            <stop offset="1" stop-color="#DF33C8"/>
        </linearGradient>
        <linearGradient id="paint20_linear" x1="128.939" y1="174.721" x2="240.202" y2="11.3904" gradientUnits="userSpaceOnUse">
            <stop stop-color="#5D2E98"/>
            <stop offset="0.479167" stop-color="#A490CD"/>
            <stop offset="1" stop-color="#DF33C8"/>
        </linearGradient>
        <linearGradient id="paint21_linear" x1="128.939" y1="174.721" x2="240.202" y2="11.3904" gradientUnits="userSpaceOnUse">
            <stop stop-color="#5D2E98"/>
            <stop offset="0.479167" stop-color="#A490CD"/>
            <stop offset="1" stop-color="#DF33C8"/>
        </linearGradient>
        <linearGradient id="paint22_linear" x1="128.939" y1="174.721" x2="240.202" y2="11.3904" gradientUnits="userSpaceOnUse">
            <stop stop-color="#5D2E98"/>
            <stop offset="0.479167" stop-color="#A490CD"/>
            <stop offset="1" stop-color="#DF33C8"/>
        </linearGradient>
        <linearGradient id="paint23_linear" x1="128.939" y1="174.721" x2="240.202" y2="11.3904" gradientUnits="userSpaceOnUse">
            <stop stop-color="#5D2E98"/>
            <stop offset="0.479167" stop-color="#A490CD"/>
            <stop offset="1" stop-color="#DF33C8"/>
        </linearGradient>
        <linearGradient id="paint24_linear" x1="128.939" y1="174.721" x2="240.202" y2="11.3904" gradientUnits="userSpaceOnUse">
            <stop stop-color="#5D2E98"/>
            <stop offset="0.479167" stop-color="#A490CD"/>
            <stop offset="1" stop-color="#DF33C8"/>
        </linearGradient>
        <linearGradient id="paint25_linear" x1="128.939" y1="174.721" x2="240.202" y2="11.3904" gradientUnits="userSpaceOnUse">
            <stop stop-color="#5D2E98"/>
            <stop offset="0.479167" stop-color="#A490CD"/>
            <stop offset="1" stop-color="#DF33C8"/>
        </linearGradient>
        <linearGradient id="paint26_linear" x1="128.939" y1="174.721" x2="240.202" y2="11.3904" gradientUnits="userSpaceOnUse">
            <stop stop-color="#5D2E98"/>
            <stop offset="0.479167" stop-color="#A490CD"/>
            <stop offset="1" stop-color="#DF33C8"/>
        </linearGradient>
        <linearGradient id="paint27_linear" x1="128.939" y1="174.721" x2="240.202" y2="11.3904" gradientUnits="userSpaceOnUse">
            <stop stop-color="#5D2E98"/>
            <stop offset="0.479167" stop-color="#A490CD"/>
            <stop offset="1" stop-color="#DF33C8"/>
        </linearGradient>
        <linearGradient id="paint28_linear" x1="128.939" y1="174.721" x2="240.202" y2="11.3904" gradientUnits="userSpaceOnUse">
            <stop stop-color="#5D2E98"/>
            <stop offset="0.479167" stop-color="#A490CD"/>
            <stop offset="1" stop-color="#DF33C8"/>
        </linearGradient>
    </defs>
</svg>
