<svg width="24" height="24" viewBox="0 0 24 24" fill="none" xmlns="http://www.w3.org/2000/svg">
<path d="M23.445 15.156L20.913 13.17C20.961 12.786 20.997 12.396 20.997 12C20.997 11.604 20.961 11.214 20.913 10.83L23.451 8.84395C23.679 8.66395 23.745 8.33996 23.595 8.07597L21.195 3.91798C21.045 3.65996 20.733 3.55196 20.463 3.65996L17.475 4.86596C16.857 4.39194 16.179 3.98998 15.447 3.68398L14.997 0.504C14.943 0.222019 14.697 0 14.397 0H9.59704C9.29706 0 9.05103 0.222019 9.00305 0.504L8.55305 3.68398C7.82106 3.98998 7.14303 4.38598 6.52507 4.86596L3.53707 3.65996C3.26707 3.55798 2.95505 3.65996 2.80509 3.91798L0.405013 8.07597C0.254995 8.33399 0.321032 8.65799 0.549013 8.84395L3.08099 10.83C3.03301 11.214 2.99701 11.604 2.99701 12C2.99701 12.396 3.03301 12.786 3.08099 13.17L0.549013 15.156C0.321032 15.336 0.254995 15.66 0.405013 15.924L2.80503 20.082C2.95505 20.34 3.26701 20.448 3.53701 20.34L6.52501 19.134C7.14303 19.608 7.82101 20.01 8.55299 20.316L9.00299 23.4959C9.05097 23.7779 9.29701 23.9999 9.59699 23.9999H14.397C14.6969 23.9999 14.943 23.7779 14.991 23.4959L15.441 20.316C16.1729 20.01 16.851 19.614 17.4689 19.134L20.4569 20.34C20.7269 20.442 21.039 20.34 21.1889 20.082L23.5889 15.924C23.739 15.666 23.673 15.342 23.445 15.156ZM11.997 16.2C9.67501 16.2 7.79699 14.322 7.79699 12C7.79699 9.67797 9.67501 7.80001 11.997 7.80001C14.319 7.80001 16.197 9.67803 16.197 12C16.197 14.322 14.319 16.2 11.997 16.2Z" fill="#40404E"/>
</svg>
