<svg width="23" height="22" viewBox="0 0 23 22" fill="none" xmlns="http://www.w3.org/2000/svg">
<path d="M8.33037 15.4708V5.9503C8.33037 4.63531 9.39546 3.57017 10.7105 3.57017H21.421V2.38013C21.421 1.06514 20.3559 0 19.0409 0H2.38013C1.06508 5.57839e-05 0 1.06514 0 2.38013V19.0409C0 20.3559 1.06508 21.4211 2.38013 21.4211H19.0409C20.3559 21.4211 21.421 20.3559 21.421 19.0409V17.8509H10.7105C9.39551 17.8509 8.33037 16.7858 8.33037 15.4708Z" fill="#40404E"/>
<path d="M10.7106 5.9502V15.4707H22.6111V5.9502H10.7106ZM15.4708 12.4955C14.483 12.4955 13.6857 11.6982 13.6857 10.7105C13.6857 9.72269 14.483 8.92537 15.4708 8.92537C16.4585 8.92537 17.2559 9.72269 17.2559 10.7105C17.2559 11.6982 16.4585 12.4955 15.4708 12.4955Z" fill="#40404E"/>
</svg>
