<svg width="88" height="105" viewBox="0 0 88 105" fill="none" xmlns="http://www.w3.org/2000/svg">
<path d="M44.0003 104.588C43.6741 104.588 43.345 104.534 43.0308 104.43C19.787 96.6827 0.432129 75.0128 0.432129 50.5093V15.3217C0.432129 13.6281 1.80258 12.2577 3.49619 12.2577C14.9176 12.2577 29.7093 8.90924 39.2128 2.57479L42.3008 0.516142C43.3301 -0.172047 44.6707 -0.172047 45.7 0.516142L48.788 2.57479C58.2913 8.90944 73.083 12.2577 84.5046 12.2577C86.1982 12.2577 87.5687 13.6281 87.5687 15.3217V50.5093C87.5687 75.0128 68.2138 96.6827 44.97 104.43C44.6556 104.535 44.3263 104.588 44.0003 104.588Z" fill="url(#paint0_linear)"/>
<path d="M43.9995 79.4325C28.7929 79.4325 16.4229 67.0625 16.4229 51.8559C16.4229 36.6493 28.7929 24.2793 43.9995 24.2793C59.206 24.2793 71.576 36.6493 71.576 51.8559C71.576 67.0625 59.206 79.4325 43.9995 79.4325Z" fill="url(#paint1_linear)"/>
<path d="M40.9367 62.2445C40.1527 62.2445 39.3687 61.9453 38.7704 61.3468L32.6422 55.2186C31.4454 54.0218 31.4454 52.0827 32.6422 50.8859C33.8391 49.689 35.7782 49.689 36.975 50.8859L40.9369 54.8477L51.0269 44.7577C52.2237 43.5609 54.1628 43.5609 55.3597 44.7577C56.5565 45.9545 56.5565 47.8937 55.3597 49.0905L43.1034 61.3468C42.5045 61.9453 41.7207 62.2445 40.9367 62.2445Z" fill="url(#paint2_linear)"/>
<defs>
<linearGradient id="paint0_linear" x1="43.9998" y1="104.588" x2="43.9998" y2="2.07304e-05" gradientUnits="userSpaceOnUse">
<stop stop-color="#60359E"/>
<stop offset="1" stop-color="#D932C5"/>
</linearGradient>
<linearGradient id="paint1_linear" x1="43.9995" y1="79.4325" x2="43.9995" y2="24.2793" gradientUnits="userSpaceOnUse">
<stop stop-color="#D0B0DD"/>
<stop offset="1" stop-color="#FFDFFF"/>
</linearGradient>
<linearGradient id="paint2_linear" x1="44.0007" y1="62.2445" x2="44.0007" y2="43.8602" gradientUnits="userSpaceOnUse">
<stop stop-color="#9234AF"/>
<stop offset="1" stop-color="#A634B5"/>
</linearGradient>
</defs>
</svg>
