<svg width="22" height="19" viewBox="0 0 22 19" fill="none" xmlns="http://www.w3.org/2000/svg">
    <path opacity="0.6" d="M10.9999 14.8437C8.39256 14.8437 6.28194 12.665 6.08772 9.90412L2.48179 6.89569C2.00776 7.53768 1.57155 8.2164 1.21955 8.95858C1.14091 9.1265 1.09994 9.31203 1.09994 9.50019C1.09994 9.68834 1.14091 9.87387 1.21955 10.0418C3.0837 13.9683 6.77419 16.6249 10.9999 16.6249C11.9249 16.6249 12.8173 16.4765 13.6774 16.2368L11.8936 14.7468C11.5991 14.8083 11.2999 14.8407 10.9999 14.8437ZM21.7874 16.9997L17.9873 13.8291C19.1416 12.7789 20.091 11.4914 20.7802 10.0414C20.8589 9.8735 20.8998 9.68797 20.8998 9.49981C20.8998 9.31166 20.8589 9.12613 20.7802 8.95821C18.9161 5.03171 15.2256 2.37507 10.9999 2.37507C9.2301 2.37739 7.48905 2.85837 5.93578 3.77408L1.56261 0.125155C1.50558 0.0772498 1.44037 0.0419454 1.3707 0.0212588C1.30103 0.000572325 1.22826 -0.00509081 1.15656 0.00459307C1.08486 0.0142769 1.01564 0.039118 0.952833 0.0776967C0.89003 0.116275 0.834885 0.167836 0.790548 0.229431L0.115769 1.16718C0.0262563 1.29148 -0.0138538 1.44909 0.00426046 1.60532C0.0223747 1.76155 0.0972298 1.90362 0.212362 2.00027L20.4372 18.8748C20.4942 18.9228 20.5594 18.9581 20.6291 18.9787C20.6988 18.9994 20.7715 19.0051 20.8432 18.9954C20.9149 18.9857 20.9842 18.9609 21.047 18.9223C21.1098 18.8837 21.1649 18.8322 21.2092 18.7706L21.8844 17.8328C21.9738 17.7085 22.0139 17.5508 21.9957 17.3946C21.9775 17.2384 21.9026 17.0963 21.7874 16.9997ZM15.4721 11.7303L14.1211 10.6029C14.2349 10.2479 14.2952 9.87557 14.2999 9.5C14.3066 8.95014 14.1937 8.40625 13.9704 7.91201C13.7471 7.41777 13.4195 6.98696 13.014 6.65419C12.6084 6.32142 12.1363 6.09596 11.6354 5.99592C11.1345 5.89588 10.6188 5.92406 10.1299 6.07818C10.3371 6.3814 10.4493 6.74818 10.4499 7.12502C10.4448 7.25043 10.427 7.37486 10.397 7.49611L7.86662 5.38498C8.74558 4.59204 9.85443 4.15722 10.9999 4.1563C11.65 4.15591 12.2939 4.29387 12.8946 4.56227C13.4953 4.83068 14.0411 5.22428 14.5009 5.72057C14.9606 6.21685 15.3252 6.80609 15.5738 7.4546C15.8224 8.1031 15.9502 8.79815 15.9499 9.5C15.9499 10.3027 15.768 11.0508 15.4721 11.7306V11.7303Z" fill="#6237A0"/>
</svg>
