<svg width="100" height="100" viewBox="0 0 100 100" fill="none" xmlns="http://www.w3.org/2000/svg">
<path d="M50 100C22.4285 100 0 77.5715 0 50C0 22.4285 22.4285 0 50 0C77.5715 0 100 22.4285 100 50C100 77.5715 77.5715 100 50 100Z" fill="#6BC078"/>
<path d="M50 100C22.4285 100 0 77.5715 0 50C0 22.4285 22.4285 0 50 0C77.5715 0 100 22.4285 100 50C100 77.5715 77.5715 100 50 100Z" fill="url(#paint0_linear)"/>
<path d="M43.8746 68C42.4354 68 40.9962 67.4628 39.8978 66.3885L28.6478 55.3885C26.4507 53.2402 26.4507 49.7595 28.6478 47.6112C30.845 45.4629 34.4048 45.4629 36.6019 47.6112L43.875 54.7227L62.3981 36.6112C64.5952 34.4629 68.155 34.4629 70.3522 36.6112C72.5493 38.7595 72.5493 42.2403 70.3522 44.3886L47.8523 66.3885C46.7528 67.4628 45.3139 68 43.8746 68Z" fill="white"/>
<defs>
<linearGradient id="paint0_linear" x1="50" y1="0" x2="50" y2="100" gradientUnits="userSpaceOnUse">
<stop stop-color="#91DE9D"/>
<stop offset="1" stop-color="#4FAC5D"/>
</linearGradient>
</defs>
</svg>
